<mxfile host="app.diagrams.net" agent="Mozilla/5.0 (Windows NT 10.0; Win64; x64) AppleWebKit/537.36 (KHTML, like Gecko) Chrome/123.0.0.0 Safari/537.36 OPR/109.0.0.0" version="24.7.5">
  <diagram name="Page-1" id="OnniErKwhlVHqoexKt-W">
    <mxGraphModel dx="1974" dy="565" grid="1" gridSize="10" guides="1" tooltips="1" connect="1" arrows="1" fold="1" page="1" pageScale="1" pageWidth="850" pageHeight="1100" math="0" shadow="0">
      <root>
        <mxCell id="0" />
        <mxCell id="1" parent="0" />
        <mxCell id="3kDJoMaCffaIHpAtDq5U-1" value="Start" style="ellipse;aspect=fixed;strokeWidth=2;whiteSpace=wrap;" parent="1" vertex="1">
          <mxGeometry x="-10" y="440" width="50" height="50" as="geometry" />
        </mxCell>
        <mxCell id="3kDJoMaCffaIHpAtDq5U-2" value="Transaction occurs" style="whiteSpace=wrap;strokeWidth=2;" parent="1" vertex="1">
          <mxGeometry x="90" y="448" width="115" height="33" as="geometry" />
        </mxCell>
        <mxCell id="3kDJoMaCffaIHpAtDq5U-3" value="Receive Payment" style="whiteSpace=wrap;strokeWidth=2;" parent="1" vertex="1">
          <mxGeometry x="255" y="448" width="122" height="33" as="geometry" />
        </mxCell>
        <mxCell id="3kDJoMaCffaIHpAtDq5U-4" value="Identify payment and account type" style="whiteSpace=wrap;strokeWidth=2;" parent="1" vertex="1">
          <mxGeometry x="424" y="448" width="133" height="33" as="geometry" />
        </mxCell>
        <mxCell id="3kDJoMaCffaIHpAtDq5U-5" value="Payment Method" style="rhombus;strokeWidth=2;whiteSpace=wrap;" parent="1" vertex="1">
          <mxGeometry x="609" y="380" width="169" height="169" as="geometry" />
        </mxCell>
        <mxCell id="3kDJoMaCffaIHpAtDq5U-6" value="Wait for check clearanceÂ " style="whiteSpace=wrap;strokeWidth=2;" parent="1" vertex="1">
          <mxGeometry x="1308" y="390" width="125" height="33" as="geometry" />
        </mxCell>
        <mxCell id="3kDJoMaCffaIHpAtDq5U-7" value="" style="curved=1;startArrow=none;endArrow=block;exitX=1;exitY=0.49;entryX=0;entryY=0.51;" parent="1" source="3kDJoMaCffaIHpAtDq5U-1" target="3kDJoMaCffaIHpAtDq5U-2" edge="1">
          <mxGeometry relative="1" as="geometry">
            <Array as="points" />
          </mxGeometry>
        </mxCell>
        <mxCell id="3kDJoMaCffaIHpAtDq5U-8" value="" style="curved=1;startArrow=none;endArrow=block;exitX=1;exitY=0.51;entryX=0;entryY=0.51;" parent="1" source="3kDJoMaCffaIHpAtDq5U-2" target="3kDJoMaCffaIHpAtDq5U-3" edge="1">
          <mxGeometry relative="1" as="geometry">
            <Array as="points" />
          </mxGeometry>
        </mxCell>
        <mxCell id="3kDJoMaCffaIHpAtDq5U-9" value="" style="curved=1;startArrow=none;endArrow=block;exitX=1;exitY=0.51;entryX=0;entryY=0.51;" parent="1" source="3kDJoMaCffaIHpAtDq5U-3" target="3kDJoMaCffaIHpAtDq5U-4" edge="1">
          <mxGeometry relative="1" as="geometry">
            <Array as="points" />
          </mxGeometry>
        </mxCell>
        <mxCell id="3kDJoMaCffaIHpAtDq5U-10" value="" style="curved=1;startArrow=none;endArrow=block;exitX=0.99;exitY=0.51;entryX=0;entryY=0.5;" parent="1" source="3kDJoMaCffaIHpAtDq5U-4" target="3kDJoMaCffaIHpAtDq5U-5" edge="1">
          <mxGeometry relative="1" as="geometry">
            <Array as="points" />
          </mxGeometry>
        </mxCell>
        <mxCell id="3kDJoMaCffaIHpAtDq5U-11" value="Check" style="curved=1;startArrow=none;endArrow=block;" parent="1" source="3kDJoMaCffaIHpAtDq5U-5" edge="1">
          <mxGeometry relative="1" as="geometry">
            <Array as="points" />
            <mxPoint x="771.0048275862065" y="427.844827586207" as="sourcePoint" />
            <mxPoint x="868.66" y="407" as="targetPoint" />
          </mxGeometry>
        </mxCell>
        <mxCell id="3kDJoMaCffaIHpAtDq5U-12" value="Cash" style="curved=1;startArrow=none;endArrow=block;exitX=1;exitY=0.58;" parent="1" source="3kDJoMaCffaIHpAtDq5U-5" edge="1">
          <mxGeometry relative="1" as="geometry">
            <Array as="points" />
            <mxPoint x="862" y="503" as="targetPoint" />
          </mxGeometry>
        </mxCell>
        <mxCell id="3kDJoMaCffaIHpAtDq5U-13" value="" style="curved=1;startArrow=none;endArrow=block;exitX=1;exitY=0.51;entryX=0;entryY=0.51;" parent="1" target="3kDJoMaCffaIHpAtDq5U-6" edge="1">
          <mxGeometry relative="1" as="geometry">
            <Array as="points" />
            <mxPoint x="1258" y="406.8299999999999" as="sourcePoint" />
          </mxGeometry>
        </mxCell>
        <mxCell id="3kDJoMaCffaIHpAtDq5U-14" value="Deposit payment in bank" style="whiteSpace=wrap;strokeWidth=2;" parent="1" vertex="1">
          <mxGeometry x="1089" y="390" width="169" height="33" as="geometry" />
        </mxCell>
        <mxCell id="3kDJoMaCffaIHpAtDq5U-15" value="Update Statement of Accounts" style="whiteSpace=wrap;strokeWidth=2;" parent="1" vertex="1">
          <mxGeometry x="864" y="487" width="169" height="33" as="geometry" />
        </mxCell>
        <mxCell id="3kDJoMaCffaIHpAtDq5U-16" value="Generate receipt" style="whiteSpace=wrap;strokeWidth=2;" parent="1" vertex="1">
          <mxGeometry x="1083" y="487" width="125" height="33" as="geometry" />
        </mxCell>
        <mxCell id="3kDJoMaCffaIHpAtDq5U-17" value="" style="curved=1;startArrow=none;endArrow=block;exitX=1;exitY=0.51;entryX=0;entryY=0.51;" parent="1" target="3kDJoMaCffaIHpAtDq5U-16" edge="1">
          <mxGeometry relative="1" as="geometry">
            <Array as="points" />
            <mxPoint x="1035" y="503.8299999999999" as="sourcePoint" />
          </mxGeometry>
        </mxCell>
        <mxCell id="vXjCoe34l3g5J8A0SnKq-16" value="" style="edgeStyle=orthogonalEdgeStyle;rounded=0;orthogonalLoop=1;jettySize=auto;html=1;exitX=0.5;exitY=1;exitDx=0;exitDy=0;entryX=0.5;entryY=0;entryDx=0;entryDy=0;" edge="1" parent="1" source="vXjCoe34l3g5J8A0SnKq-17" target="3kDJoMaCffaIHpAtDq5U-15">
          <mxGeometry relative="1" as="geometry">
            <mxPoint x="1710" y="446" as="sourcePoint" />
            <mxPoint x="940" y="450" as="targetPoint" />
            <Array as="points">
              <mxPoint x="1540" y="423" />
              <mxPoint x="1540" y="450" />
              <mxPoint x="949" y="450" />
            </Array>
          </mxGeometry>
        </mxCell>
        <mxCell id="3kDJoMaCffaIHpAtDq5U-19" value="" style="curved=1;startArrow=none;endArrow=block;exitX=1;exitY=0.51;entryX=0;entryY=0.51;" parent="1" edge="1">
          <mxGeometry relative="1" as="geometry">
            <Array as="points" />
            <mxPoint x="1431" y="406.8299999999999" as="sourcePoint" />
            <mxPoint x="1481" y="406.8299999999999" as="targetPoint" />
          </mxGeometry>
        </mxCell>
        <mxCell id="3kDJoMaCffaIHpAtDq5U-21" value="End of Day Reconciliation" style="whiteSpace=wrap;strokeWidth=2;" parent="1" vertex="1">
          <mxGeometry x="1264" y="487" width="125" height="33" as="geometry" />
        </mxCell>
        <mxCell id="3kDJoMaCffaIHpAtDq5U-22" value="" style="curved=1;startArrow=none;endArrow=block;exitX=1;exitY=0.5;entryX=0;entryY=0.51;exitDx=0;exitDy=0;" parent="1" source="3kDJoMaCffaIHpAtDq5U-16" target="3kDJoMaCffaIHpAtDq5U-21" edge="1">
          <mxGeometry relative="1" as="geometry">
            <Array as="points" />
            <mxPoint x="1215" y="503.8299999999999" as="sourcePoint" />
          </mxGeometry>
        </mxCell>
        <mxCell id="3kDJoMaCffaIHpAtDq5U-23" value="Prepare daily report" style="whiteSpace=wrap;strokeWidth=2;" parent="1" vertex="1">
          <mxGeometry x="1445" y="487" width="125" height="33" as="geometry" />
        </mxCell>
        <mxCell id="3kDJoMaCffaIHpAtDq5U-24" value="" style="curved=1;startArrow=none;endArrow=block;exitX=1;exitY=0.5;entryX=0;entryY=0.51;exitDx=0;exitDy=0;" parent="1" source="3kDJoMaCffaIHpAtDq5U-21" target="3kDJoMaCffaIHpAtDq5U-23" edge="1">
          <mxGeometry relative="1" as="geometry">
            <Array as="points" />
            <mxPoint x="1394" y="503.8299999999999" as="sourcePoint" />
          </mxGeometry>
        </mxCell>
        <mxCell id="3kDJoMaCffaIHpAtDq5U-25" value="Monthly Closing" style="whiteSpace=wrap;strokeWidth=2;" parent="1" vertex="1">
          <mxGeometry x="1620" y="487" width="125" height="33" as="geometry" />
        </mxCell>
        <mxCell id="3kDJoMaCffaIHpAtDq5U-26" value="" style="curved=1;startArrow=none;endArrow=block;exitX=1;exitY=0.51;entryX=0;entryY=0.51;" parent="1" target="3kDJoMaCffaIHpAtDq5U-25" edge="1">
          <mxGeometry relative="1" as="geometry">
            <Array as="points" />
            <mxPoint x="1569" y="503.8299999999999" as="sourcePoint" />
          </mxGeometry>
        </mxCell>
        <mxCell id="3kDJoMaCffaIHpAtDq5U-27" value="Prepare closing trial balance" style="whiteSpace=wrap;strokeWidth=2;" parent="1" vertex="1">
          <mxGeometry x="1795" y="487" width="125" height="33" as="geometry" />
        </mxCell>
        <mxCell id="3kDJoMaCffaIHpAtDq5U-28" value="" style="curved=1;startArrow=none;endArrow=block;exitX=1;exitY=0.51;entryX=0;entryY=0.51;" parent="1" target="3kDJoMaCffaIHpAtDq5U-27" edge="1">
          <mxGeometry relative="1" as="geometry">
            <Array as="points" />
            <mxPoint x="1744" y="503.8299999999999" as="sourcePoint" />
          </mxGeometry>
        </mxCell>
        <mxCell id="3kDJoMaCffaIHpAtDq5U-29" value="Review entries for accuracy" style="whiteSpace=wrap;strokeWidth=2;" parent="1" vertex="1">
          <mxGeometry x="1969" y="485" width="125" height="33" as="geometry" />
        </mxCell>
        <mxCell id="3kDJoMaCffaIHpAtDq5U-30" value="" style="curved=1;startArrow=none;endArrow=block;exitX=1;exitY=0.51;entryX=0;entryY=0.51;" parent="1" target="3kDJoMaCffaIHpAtDq5U-29" edge="1">
          <mxGeometry relative="1" as="geometry">
            <Array as="points" />
            <mxPoint x="1919" y="501.8299999999999" as="sourcePoint" />
          </mxGeometry>
        </mxCell>
        <mxCell id="3kDJoMaCffaIHpAtDq5U-31" value="Close books for the month" style="whiteSpace=wrap;strokeWidth=2;" parent="1" vertex="1">
          <mxGeometry x="2144" y="483" width="125" height="33" as="geometry" />
        </mxCell>
        <mxCell id="3kDJoMaCffaIHpAtDq5U-32" value="" style="curved=1;startArrow=none;endArrow=block;exitX=1;exitY=0.51;entryX=0;entryY=0.51;" parent="1" target="3kDJoMaCffaIHpAtDq5U-31" edge="1">
          <mxGeometry relative="1" as="geometry">
            <Array as="points" />
            <mxPoint x="2094" y="499.8299999999999" as="sourcePoint" />
          </mxGeometry>
        </mxCell>
        <mxCell id="3kDJoMaCffaIHpAtDq5U-33" value="Errors Detected" style="rhombus;strokeWidth=2;whiteSpace=wrap;" parent="1" vertex="1">
          <mxGeometry x="2318" y="411" width="169" height="169" as="geometry" />
        </mxCell>
        <mxCell id="3kDJoMaCffaIHpAtDq5U-34" value="" style="curved=1;startArrow=none;endArrow=block;exitX=0.99;exitY=0.51;entryX=0;entryY=0.5;" parent="1" target="3kDJoMaCffaIHpAtDq5U-33" edge="1">
          <mxGeometry relative="1" as="geometry">
            <Array as="points" />
            <mxPoint x="2269" y="496" as="sourcePoint" />
          </mxGeometry>
        </mxCell>
        <mxCell id="3kDJoMaCffaIHpAtDq5U-35" value="Yes" style="curved=1;startArrow=none;endArrow=block;exitX=1;exitY=0.42;" parent="1" source="3kDJoMaCffaIHpAtDq5U-33" edge="1">
          <mxGeometry relative="1" as="geometry">
            <Array as="points" />
            <mxPoint x="2573" y="463" as="targetPoint" />
          </mxGeometry>
        </mxCell>
        <mxCell id="3kDJoMaCffaIHpAtDq5U-36" value="No" style="curved=1;startArrow=none;endArrow=block;exitX=1;exitY=0.58;" parent="1" source="3kDJoMaCffaIHpAtDq5U-33" edge="1">
          <mxGeometry relative="1" as="geometry">
            <Array as="points" />
            <mxPoint x="2571" y="534" as="targetPoint" />
          </mxGeometry>
        </mxCell>
        <mxCell id="3kDJoMaCffaIHpAtDq5U-37" value="Inform VP Finance" style="whiteSpace=wrap;strokeWidth=2;" parent="1" vertex="1">
          <mxGeometry x="2573" y="450" width="125" height="33" as="geometry" />
        </mxCell>
        <mxCell id="3kDJoMaCffaIHpAtDq5U-38" value="Prepare journal voucher for correction" style="whiteSpace=wrap;strokeWidth=2;" parent="1" vertex="1">
          <mxGeometry x="2748" y="448.5" width="125" height="33" as="geometry" />
        </mxCell>
        <mxCell id="3kDJoMaCffaIHpAtDq5U-39" value="" style="curved=1;startArrow=none;endArrow=block;exitX=1;exitY=0.51;entryX=0;entryY=0.51;" parent="1" target="3kDJoMaCffaIHpAtDq5U-38" edge="1">
          <mxGeometry relative="1" as="geometry">
            <Array as="points" />
            <mxPoint x="2698" y="465.3299999999999" as="sourcePoint" />
          </mxGeometry>
        </mxCell>
        <mxCell id="vXjCoe34l3g5J8A0SnKq-20" value="" style="edgeStyle=orthogonalEdgeStyle;rounded=0;orthogonalLoop=1;jettySize=auto;html=1;" edge="1" parent="1" source="3kDJoMaCffaIHpAtDq5U-40" target="vXjCoe34l3g5J8A0SnKq-19">
          <mxGeometry relative="1" as="geometry">
            <Array as="points">
              <mxPoint x="3090" y="463" />
              <mxPoint x="3090" y="463" />
            </Array>
          </mxGeometry>
        </mxCell>
        <mxCell id="3kDJoMaCffaIHpAtDq5U-40" value="Correct error in General Ledger" style="whiteSpace=wrap;strokeWidth=2;" parent="1" vertex="1">
          <mxGeometry x="2923" y="446" width="125" height="33" as="geometry" />
        </mxCell>
        <mxCell id="3kDJoMaCffaIHpAtDq5U-41" value="" style="curved=1;startArrow=none;endArrow=block;exitX=1;exitY=0.51;entryX=0;entryY=0.51;" parent="1" target="3kDJoMaCffaIHpAtDq5U-40" edge="1">
          <mxGeometry relative="1" as="geometry">
            <Array as="points" />
            <mxPoint x="2873" y="462.8299999999999" as="sourcePoint" />
          </mxGeometry>
        </mxCell>
        <mxCell id="3kDJoMaCffaIHpAtDq5U-42" value="End" style="ellipse;aspect=fixed;strokeWidth=2;whiteSpace=wrap;" parent="1" vertex="1">
          <mxGeometry x="2569" y="518" width="50" height="50" as="geometry" />
        </mxCell>
        <mxCell id="vXjCoe34l3g5J8A0SnKq-1" value="" style="curved=1;startArrow=none;endArrow=block;exitX=1;exitY=0.51;entryX=0;entryY=0.51;" edge="1" parent="1">
          <mxGeometry relative="1" as="geometry">
            <Array as="points" />
            <mxPoint x="1039" y="406.8299999999999" as="sourcePoint" />
            <mxPoint x="1089" y="407" as="targetPoint" />
          </mxGeometry>
        </mxCell>
        <mxCell id="vXjCoe34l3g5J8A0SnKq-2" value="Cashier issues acknowledgement receipt" style="whiteSpace=wrap;strokeWidth=2;" vertex="1" parent="1">
          <mxGeometry x="870" y="390" width="169" height="33" as="geometry" />
        </mxCell>
        <mxCell id="vXjCoe34l3g5J8A0SnKq-17" value="Follow up on the next day" style="whiteSpace=wrap;strokeWidth=2;" vertex="1" parent="1">
          <mxGeometry x="1480" y="390" width="125" height="33" as="geometry" />
        </mxCell>
        <mxCell id="vXjCoe34l3g5J8A0SnKq-19" value="End" style="ellipse;whiteSpace=wrap;html=1;strokeWidth=2;" vertex="1" parent="1">
          <mxGeometry x="3100" y="434.5" width="49.5" height="52.5" as="geometry" />
        </mxCell>
      </root>
    </mxGraphModel>
  </diagram>
</mxfile>
